# xmcd
#
# Track frame offsets: 
#        150
#        22805
#        41740
#        56115
#        74090
#        87883
#        100325
#        122148
#        147383
#        162183
#        180385
#
# Disc length: 2650 seconds
#
# Revision: 2
# Processed by: cddbd v1.5.2PL0 Copyright (c) Steve Scherf et al.
# Submitted via: ExactAudioCopyFreeDBPlugin 1.0
#
DISCID=980a580b
DTITLE=Various Artist - Living Country Blues USA Vol.1
DYEAR=2008
DGENRE=Blues
TTITLE0=Bowling Green" John Cephas and "Harmonica" Phil Wiggins - Black 
TTITLE0=Rat Swing
TTITLE1=Bowling Green" John Cephas and "Harmonica" Phil Wiggins - Eyesig
TTITLE1=ht To The Blind
TTITLE2=Bowling Green" John Cephas and "Harmonica" Phil Wiggins - Guitar
TTITLE2=and Harmonica Rag
TTITLE3=Bowling Green" John Cephas - Rising River Blues
TTITLE4=Bowling Green" John Cephas and "Harmonica" Phil Wiggins - I'm A 
TTITLE4=Pilgrim
TTITLE5=Bowling Green" John Cephas - Chicken Can't Roost Too High For 
TTITLE5=Me
TTITLE6=Bowling Green" John Cephas and "Harmonica" Phil Wiggins - I Ain'
TTITLE6=t Got No Lovin' Baby Now
TTITLE7=Bowling Green" John Cephas and "Harmonica" Phil Wiggins - West C
TTITLE7=arey Street Blues
TTITLE8=Bowling Green" John Cephas - Richmond Blues
TTITLE9=Bowling Green" John Cephas and "Harmonica" Phil Wiggins - Pony B
TTITLE9=lues
TTITLE10=Bowling Green" John Cephas and "Harmonica" Phil Wiggins - Goin'
TTITLE10=Down The Road Feelin' Bad
EXTD=YEAR: 2008
EXTT0=
EXTT1=
EXTT2=
EXTT3=
EXTT4=
EXTT5=
EXTT6=
EXTT7=
EXTT8=
EXTT9=
EXTT10=
PLAYORDER=
